<svg width="30" height="30" viewBox="0 0 30 30" fill="none" xmlns="http://www.w3.org/2000/svg">
<path d="M3.00005 4.8C2.84104 4.79775 2.68316 4.82713 2.5356 4.88643C2.38804 4.94572 2.25373 5.03376 2.14049 5.14541C2.02724 5.25706 1.93732 5.39011 1.87594 5.53682C1.81457 5.68353 1.78296 5.84097 1.78296 6C1.78296 6.15903 1.81457 6.31648 1.87594 6.46318C1.93732 6.60989 2.02724 6.74294 2.14049 6.85459C2.25373 6.96625 2.38804 7.05428 2.5356 7.11358C2.68316 7.17287 2.84104 7.20225 3.00005 7.2H27.0001C27.1591 7.20225 27.3169 7.17287 27.4645 7.11358C27.6121 7.05428 27.7464 6.96625 27.8596 6.85459C27.9729 6.74294 28.0628 6.60989 28.1242 6.46318C28.1855 6.31648 28.2171 6.15903 28.2171 6C28.2171 5.84097 28.1855 5.68353 28.1242 5.53682C28.0628 5.39011 27.9729 5.25706 27.8596 5.14541C27.7464 5.03376 27.6121 4.94572 27.4645 4.88643C27.3169 4.82713 27.1591 4.79775 27.0001 4.8H3.00005ZM3.00005 13.8C2.84104 13.7978 2.68316 13.8271 2.5356 13.8864C2.38804 13.9457 2.25373 14.0338 2.14049 14.1454C2.02724 14.2571 1.93732 14.3901 1.87594 14.5368C1.81457 14.6835 1.78296 14.841 1.78296 15C1.78296 15.159 1.81457 15.3165 1.87594 15.4632C1.93732 15.6099 2.02724 15.7429 2.14049 15.8546C2.25373 15.9662 2.38804 16.0543 2.5356 16.1136C2.68316 16.1729 2.84104 16.2022 3.00005 16.2H27.0001C27.1591 16.2022 27.3169 16.1729 27.4645 16.1136C27.6121 16.0543 27.7464 15.9662 27.8596 15.8546C27.9729 15.7429 28.0628 15.6099 28.1242 15.4632C28.1855 15.3165 28.2171 15.159 28.2171 15C28.2171 14.841 28.1855 14.6835 28.1242 14.5368C28.0628 14.3901 27.9729 14.2571 27.8596 14.1454C27.7464 14.0338 27.6121 13.9457 27.4645 13.8864C27.3169 13.8271 27.1591 13.7978 27.0001 13.8H3.00005ZM3.00005 22.8C2.84104 22.7978 2.68316 22.8271 2.5356 22.8864C2.38804 22.9457 2.25373 23.0338 2.14049 23.1454C2.02724 23.2571 1.93732 23.3901 1.87594 23.5368C1.81457 23.6835 1.78296 23.841 1.78296 24C1.78296 24.159 1.81457 24.3165 1.87594 24.4632C1.93732 24.6099 2.02724 24.7429 2.14049 24.8546C2.25373 24.9662 2.38804 25.0543 2.5356 25.1136C2.68316 25.1729 2.84104 25.2022 3.00005 25.2H27.0001C27.1591 25.2022 27.3169 25.1729 27.4645 25.1136C27.6121 25.0543 27.7464 24.9662 27.8596 24.8546C27.9729 24.7429 28.0628 24.6099 28.1242 24.4632C28.1855 24.3165 28.2171 24.159 28.2171 24C28.2171 23.841 28.1855 23.6835 28.1242 23.5368C28.0628 23.3901 27.9729 23.2571 27.8596 23.1454C27.7464 23.0338 27.6121 22.9457 27.4645 22.8864C27.3169 22.8271 27.1591 22.7978 27.0001 22.8H3.00005Z" fill="#F8F9FA"/>
</svg>
