<svg width="50" height="50" viewBox="0 0 50 50" fill="none" xmlns="http://www.w3.org/2000/svg">
<path d="M44.0898 4H5.91016C4.80469 4 4 4.80469 4 5.91016V44.0898C4 45.1953 4.80469 46 5.91016 46H44.0898C45.1953 46 46 45.1953 46 44.0898V5.91016C46 4.80469 45.1953 4 44.0898 4ZM20.5742 28.4062C20.9062 28.4062 21.2813 28.3281 21.5195 28.2539L21.7148 29.9062C21.4297 30.0391 20.875 30.1445 20.1836 30.1445C17.6055 30.1445 16.375 28.0156 16.375 25.1484C16.375 21.3398 18.4883 19.8555 20.4531 19.8555C21.1445 19.8555 21.625 19.9883 21.8203 20.125L21.4883 21.7734C21.2656 21.6719 21.0117 21.5781 20.5742 21.5781C19.4648 21.5781 18.4609 22.5391 18.4609 25.0469C18.4609 27.4609 19.375 28.4062 20.5742 28.4062ZM24.2188 30.1445C23.4102 30.1445 22.6133 29.9336 22.2852 29.7383L22.5703 28.0469C22.9766 28.2695 23.6641 28.4336 24.2344 28.4336C25.1641 28.4336 25.6133 27.9531 25.6133 27.2969C25.6133 26.5586 25.1641 26.1992 24.3086 25.6445C22.9297 24.8047 22.4062 23.7383 22.4062 22.8242C22.4062 21.2031 23.4844 19.8555 25.6016 19.8555C26.2617 19.8555 26.8906 20.0352 27.1914 20.2148L26.875 21.9102C26.5898 21.7305 26.1562 21.5664 25.5859 21.5664C24.7461 21.5664 24.3398 22.0742 24.3398 22.6133C24.3398 23.2148 24.6406 23.5313 25.7344 24.1914C27.0703 25 27.5664 26.0195 27.5664 27.0859C27.5625 28.9297 26.1992 30.1445 24.2188 30.1445ZM30.1289 30.1445C29.3203 30.1445 28.5234 29.9336 28.1953 29.7383L28.4805 28.0469C28.8867 28.2695 29.5742 28.4336 30.1445 28.4336C31.0742 28.4336 31.5234 27.9531 31.5234 27.2969C31.5234 26.5586 31.0742 26.1992 30.2188 25.6445C28.8398 24.8047 28.3164 23.7383 28.3164 22.8242C28.3164 21.2031 29.3945 19.8555 31.5117 19.8555C32.1719 19.8555 32.8008 20.0352 33.1016 20.2148L32.7852 21.9102C32.5 21.7305 32.0664 21.5664 31.4961 21.5664C30.6562 21.5664 30.25 22.0742 30.25 22.6133C30.25 23.2148 30.5508 23.5313 31.6445 24.1914C32.9805 25 33.4766 26.0195 33.4766 27.0859C33.4766 28.9297 32.1094 30.1445 30.1289 30.1445Z" fill="#FF6B6B"/>
</svg>
