<svg width="50" height="50" viewBox="0 0 50 50" fill="none" xmlns="http://www.w3.org/2000/svg">
<path d="M6.04492 15.9902V20.2207C5.63692 20.1157 5.14713 20.0801 4.70312 20.0801C1.84413 20.0801 0 21.8728 0 24.6348C0 27.5028 1.73808 28.994 5.08008 28.998C6.19608 28.998 7.22986 28.8959 8.63086 28.6309V15.9902H6.04492ZM10.2461 16.0039V18.7832H12.9824V16.0039H10.2461ZM10.2461 20V25.6152C10.2461 27.9732 10.1234 28.8705 9.73242 29.6445C9.35942 30.4015 8.77441 30.896 7.56641 31.457L10.1055 32.6543C11.3135 32.0533 11.8978 31.5104 12.3418 30.6484C12.8168 29.7524 12.9785 28.7128 12.9785 26.5508V20H10.2461ZM45.5664 20C42.7574 20 41.005 21.7619 41 24.5879C41 27.3099 42.6981 29 45.4551 29C48.2471 29 50 27.2406 50 24.4316C50 21.6916 48.3194 20 45.5664 20ZM18.084 20.0801C16.874 20.0801 15.7664 20.3277 14.6074 20.8867L14.6113 22.9746C15.6353 22.4316 16.7253 22.1504 17.6953 22.1504C18.3573 22.1504 18.5977 22.3284 18.5977 22.8184V23.4121C15.3777 23.6901 14.0664 24.5669 14.0664 26.4609C14.0664 28.2119 15.0539 29 17.2539 29C18.3419 29 19.825 28.8752 21 28.7012V23.2188C21 22.0968 20.929 21.571 20.709 21.168C20.317 20.448 19.432 20.0801 18.084 20.0801ZM26.918 20.0801C25.57 20.0801 24.239 20.2714 22.623 20.6934V28.8906H25.3555V22.4531C25.9055 22.2931 26.2412 22.2598 26.6152 22.2598C27.5902 22.2598 28.0469 22.6465 28.0469 23.6855V28.8906H30.6836V23.5781C30.6836 22.2251 30.5025 21.5907 29.9355 21.0117C29.3335 20.3977 28.319 20.0801 26.918 20.0801ZM37.7852 20.0957C33.7922 20.0957 31.5352 21.8341 31.5352 24.9141C31.5352 27.3941 33.059 28.9609 35.457 28.9609C36.165 28.9609 36.7004 28.8538 37.2324 28.5918V28.6426C37.2324 30.3656 36.4678 31.0879 34.6758 31.0879C33.6608 31.0879 32.7031 30.8611 31.7461 30.3691H31.7441V32.8711C32.7021 33.2411 33.6244 33.3984 34.6914 33.3984C36.7874 33.3984 38.2632 32.7457 39.1152 31.4277C39.6992 30.5287 39.8965 29.4382 39.8965 27.1152V26.377C39.8785 26.007 39.8793 25.6376 39.8613 25.2676L39.8438 23.7891L39.8086 22.6445V22.3613C40.3576 22.4133 39.69 22.2955 40.418 22.4355L41.3555 20.4824C40.0425 20.2174 38.9582 20.0957 37.7852 20.0957ZM45.5273 22.1582C46.5833 22.1582 47.1895 23.0291 47.1895 24.4961C47.1895 25.9801 46.5668 26.8359 45.5098 26.8359C44.4388 26.8359 43.8086 25.9801 43.8086 24.4961C43.8086 23.0121 44.4343 22.1582 45.5273 22.1582ZM4.9707 22.2598C5.30811 22.2598 5.7232 22.2958 6.04297 22.4004V26.748C5.65197 26.8 5.25613 26.8184 4.95312 26.8184C3.55212 26.8184 2.78711 26.022 2.78711 24.582C2.78711 23.103 3.5867 22.2598 4.9707 22.2598ZM36.8945 22.2773H37.0918H37.1797V22.4863L37.1973 23.3828L37.2148 24.6328C37.2148 25.0018 37.2324 25.3549 37.2324 25.6719V26.4102V26.6074C36.8804 26.7124 36.5781 26.7812 36.2051 26.7812C34.9971 26.7812 34.3203 26.0053 34.3203 24.6523C34.3203 23.7033 34.6575 23.0341 35.3125 22.6641C35.7385 22.3991 36.3625 22.2603 36.8945 22.2773ZM18.7168 25.1777V26.9844C18.2068 27.0714 17.8471 27.1074 17.4551 27.1074C16.7381 27.1074 16.4141 26.8609 16.4141 26.3359C16.4141 25.6349 16.9798 25.3517 18.7168 25.1777Z" fill="#FF6B6B"/>
</svg>
