<svg width="50" height="50" viewBox="0 0 50 50" fill="none" xmlns="http://www.w3.org/2000/svg">
<g clip-path="url(#clip0_6_51)">
<path d="M2.60937 14.6289C2.19412 14.6638 1.83161 14.9976 2.34961 15.5566C3.34461 16.1186 1.36831 16.5322 1.94531 16.9082C2.12931 17.3042 1.93057 17.7454 1.39257 17.8164C0.604575 17.8844 0.679262 18.9605 1.44726 18.3965C2.30426 18.1245 1.5954 18.504 1.1914 18.582C0.284403 18.846 -0.333644 19.7521 0.193356 20.5801C0.697356 21.7201 0.831653 22.9917 1.22265 24.1777C1.86965 26.0017 2.81497 27.7373 4.04297 29.2363C4.62597 30.0863 5.47829 30.6903 6.27929 31.3203C7.06729 31.8313 7.94479 32.3425 8.84179 32.6035C10.4348 33.1865 12.1444 33.241 13.8184 33.373C14.8384 33.371 15.8621 33.2991 16.8691 33.1191C17.7751 33.2171 18.4271 32.4426 19.2461 32.8516C19.7421 32.4116 20.4649 32.6032 20.9609 32.2832C21.3279 31.0352 19.7005 32.0358 19.1855 31.4258C18.6255 32.0838 18.1556 31.3536 17.4766 31.5586C16.3206 31.6166 17.5642 31.0407 17.5352 30.5117C16.9222 30.0417 16.2299 31.157 15.8379 31.457C14.8699 31.282 13.9114 31.0069 13.0234 30.5879C12.0114 30.0609 11.0182 29.4339 10.2852 28.5449C9.51815 27.6369 8.67031 26.7187 8.32031 25.5527C7.58031 23.6277 7.62845 21.5435 7.43945 19.5215C7.50945 18.1525 8.95507 19.6688 9.58007 19.1738C9.36607 18.4638 8.2257 18.2391 7.5957 17.9551C6.9877 17.9131 6.76614 17.3682 6.11914 17.3242C6.15014 16.5642 4.93032 16.9824 4.48632 16.4414C4.92332 15.3134 3.03854 16.4682 3.18554 15.4922C3.49254 14.8577 3.02462 14.594 2.60937 14.6289ZM2.61523 14.7246C2.71379 14.7 2.82715 14.7198 2.9414 14.8105C3.4834 15.5405 1.94451 14.7268 2.47851 15.4238C2.15376 15.2716 2.31954 14.7984 2.61523 14.7246ZM41.9141 15.0859C41.8471 15.0859 41.6717 15.1773 41.3887 15.3633C41.0387 15.5893 40.6692 15.7675 40.2832 15.8965C40.0412 15.9795 39.9219 16.0951 39.9219 16.2441C39.9219 16.3471 40.0058 16.4274 40.1758 16.4844C40.5368 16.6034 40.7737 16.7675 40.8867 16.9785C40.9697 17.1435 41.0117 17.4364 41.0117 17.8594V24.6152C41.0117 25.2072 40.8689 25.5393 40.5859 25.6113C40.2709 25.6933 40.1133 25.8146 40.1133 25.9746C40.1133 26.0416 40.1189 26.0949 40.1289 26.1309C40.1539 26.2339 40.3219 26.2721 40.6309 26.2461C41.8579 26.1481 42.7291 26.1239 43.2441 26.1699C43.4091 26.1859 43.5098 26.1784 43.5488 26.1504C43.5878 26.1224 43.6074 26.0487 43.6074 25.9297C43.6074 25.7797 43.4861 25.6892 43.2441 25.6582C42.8521 25.6172 42.6021 25.5603 42.4941 25.4883C42.3401 25.3853 42.2561 25.1698 42.2461 24.8398C42.2361 24.5098 42.2324 24.257 42.2324 24.082C42.2324 23.835 42.3537 23.6438 42.5957 23.5098C42.8117 23.3548 42.9628 23.2773 43.0508 23.2773C43.1228 23.2773 43.1825 23.3203 43.2285 23.4023C43.7955 24.3613 44.4868 25.2783 45.3008 26.1543C45.4238 26.2833 45.6309 26.3187 45.9199 26.2617C46.5029 26.2157 46.973 26.1905 47.334 26.1855C47.576 26.1755 47.6973 26.0784 47.6973 25.8984C47.6973 25.7544 47.6683 25.6658 47.6113 25.6328C47.5543 25.5998 47.4089 25.582 47.1719 25.582C46.8529 25.582 46.5086 25.4253 46.1426 25.1113C45.5706 24.6123 44.9624 23.8716 44.3184 22.8926C44.1434 22.6196 44.0566 22.447 44.0566 22.375C44.0566 22.329 44.0762 22.2908 44.1172 22.2598C44.6732 21.7038 45.1975 21.3138 45.6875 21.0918C46.0385 20.9268 46.4116 20.8353 46.8086 20.8203C47.0616 20.8053 47.1875 20.7102 47.1875 20.5352C47.1875 20.3492 47.1073 20.253 46.9473 20.248C46.4583 20.248 45.9657 20.2452 45.4707 20.2402C44.7597 20.2352 44.2187 20.2083 43.8477 20.1563C43.6827 20.1303 43.5912 20.2087 43.5762 20.3887C43.5662 20.5687 43.652 20.6685 43.832 20.6895C44.249 20.7465 44.457 20.8434 44.457 20.9824C44.457 21.0594 44.3955 21.164 44.2715 21.293C43.6475 21.834 43.1233 22.2705 42.6953 22.6055C42.5353 22.7395 42.4168 22.8066 42.3398 22.8066C42.2678 22.8066 42.2305 22.7395 42.2305 22.6055L42.2168 17.7676C42.2168 17.1336 42.2196 16.628 42.2246 16.252C42.2296 15.706 42.2324 15.4503 42.2324 15.4863C42.2324 15.2183 42.1251 15.0859 41.9141 15.0859ZM24.2676 15.1406C24.1856 15.1406 23.9887 15.232 23.6797 15.418C23.3037 15.655 22.9398 15.8304 22.5898 15.9434C22.3578 16.0204 22.2422 16.138 22.2422 16.293C22.2422 16.396 22.3224 16.4743 22.4824 16.5313C22.7864 16.6393 22.9981 16.7923 23.1191 16.9883C23.2401 17.1843 23.3027 17.4912 23.3027 17.9082V24.9023C23.3027 25.3243 23.1619 25.5791 22.8809 25.6641C22.5999 25.7491 22.4609 25.8526 22.4609 25.9766C22.4609 26.1156 22.4842 26.2014 22.5332 26.2324C22.5822 26.2624 22.7128 26.2671 22.9238 26.2461C23.9758 26.1581 24.8554 26.1498 25.5664 26.2168C25.7984 26.2418 25.9141 26.1513 25.9141 25.9453C25.9141 25.7963 25.7994 25.7086 25.5664 25.6836C25.1904 25.6376 24.9245 25.5424 24.7695 25.4004C24.6145 25.2584 24.5371 25.0308 24.5371 24.7168L24.5078 17.8145C24.5018 17.3205 24.5065 16.8166 24.5215 16.3066C24.5425 15.7706 24.5527 15.5122 24.5527 15.5332C24.5527 15.2702 24.4586 15.1406 24.2676 15.1406ZM13.9883 15.9531C13.9313 15.9631 13.8912 16.0172 13.8652 16.1152C13.8142 16.2752 13.8917 16.4011 14.0977 16.4941C14.4267 16.6441 14.6524 16.8111 14.7734 16.9941C14.8944 17.1771 14.9551 17.4393 14.9551 17.7793V24.3965C14.9551 25.2265 14.7023 25.6696 14.1973 25.7266C13.9763 25.7476 13.8652 25.823 13.8652 25.957C13.8652 26.169 13.9753 26.2595 14.1973 26.2285C14.9903 26.1205 15.9977 26.1168 17.2187 26.2148C17.6407 26.2508 17.8674 26.1837 17.8984 26.0137C17.9294 25.8187 17.8184 25.7076 17.5664 25.6816C17.0724 25.6196 16.7506 25.5497 16.6016 25.4727C16.4106 25.3797 16.3144 25.2033 16.3144 24.9453V21.4688C16.3144 21.4028 16.3601 21.3672 16.4531 21.3672C17.2721 21.3672 17.8655 21.3896 18.2285 21.4336C18.5915 21.4776 18.8406 21.8228 18.9746 22.4668C19.0116 22.6368 19.1001 22.7123 19.2441 22.6973C19.4191 22.6873 19.505 22.6164 19.5 22.4824C19.448 21.3594 19.4947 20.4471 19.6387 19.7461C19.6647 19.6221 19.5891 19.5419 19.4141 19.5059C19.2081 19.4599 19.0887 19.5401 19.0527 19.7461C18.9957 20.1231 18.9379 20.3553 18.8789 20.4453C18.8199 20.5353 18.7032 20.5903 18.5332 20.6113C17.6622 20.6683 16.9981 20.7001 16.5391 20.7051C16.3901 20.7101 16.3164 20.6542 16.3164 20.5352V17.0332C16.3164 16.9142 16.3406 16.8368 16.3926 16.8008C16.4756 16.7438 16.6519 16.7168 16.9199 16.7168C18.0899 16.7168 18.8193 16.7392 19.1133 16.7852C19.3863 16.8212 19.6065 16.9285 19.7715 17.1035C19.9115 17.2525 20.0579 17.5146 20.2129 17.8906C20.2689 18.0296 20.3697 18.0996 20.5137 18.0996C20.6577 18.0996 20.7285 18.0194 20.7285 17.8594C20.7485 17.0454 20.8026 16.4661 20.8906 16.1211C20.8956 16.1001 20.8984 16.0807 20.9004 16.0547C20.9004 15.9777 20.7278 15.9478 20.3828 15.9688C19.3468 16.0308 18.1173 16.0625 16.6953 16.0625C15.4893 16.0625 14.7234 16.0364 14.3984 15.9844C14.1764 15.9484 14.0403 15.9381 13.9883 15.9531ZM3.79101 16.1367C3.92901 16.166 3.97665 16.2483 3.59765 16.2988L3.44531 16.291C3.42531 16.1315 3.65301 16.1075 3.79101 16.1367ZM3.63867 16.6699C3.91267 16.7899 4.4744 16.8455 4.5664 17.1465C4.0054 16.8545 4.67803 17.4983 4.20703 17.4863C3.95303 17.4893 3.48267 16.9439 3.63867 16.6699ZM3.49804 17.123C4.13304 17.606 3.14418 17.1228 2.74218 17.4258C2.10918 17.4898 3.43604 17.069 3.49804 17.123ZM5.17578 17.4121C5.25681 17.4345 5.25679 17.5111 5.12304 17.6719C5.61504 18.2599 5.23343 18.0615 4.89843 17.6445C5.19243 17.8475 4.96567 18.7241 4.51367 18.1211C4.19367 17.5251 3.99107 17.9279 4.33007 18.3359C3.99707 17.7089 3.03312 17.9768 2.32812 18.2168C1.87312 18.1668 3.5105 17.828 3.6875 17.748C3.96125 17.7533 4.93268 17.345 5.17578 17.4121ZM7.14843 18.0762C7.34954 18.0736 7.54789 18.0812 7.74414 18.0977C8.05914 18.4647 7.50568 19.086 6.92968 19.127C6.22968 19.389 5.51718 19.4531 4.86718 19.5391C4.03318 19.4341 3.43431 20.1843 2.57031 20.2793C2.80031 19.8533 2.38136 20.1323 1.94336 20.1113C2.16636 20.9713 0.400356 19.8828 1.44336 19.6758C0.661356 19.3978 0.650418 20.2195 0.732418 20.6875H0.679684C-0.0363159 19.7655 0.760012 19.3895 1.66601 19.2715C1.49401 19.6965 1.9134 19.8332 2.3164 19.9102C2.9694 19.7302 1.88686 19.6144 2.38086 19.4434C2.65186 19.3934 1.51689 19.1719 2.46289 19.0449C3.43289 18.8819 4.30557 18.5008 5.26757 18.3008C5.91857 18.1718 6.54511 18.084 7.14843 18.0762ZM6.93359 18.2949C6.84797 18.2683 6.64887 18.3218 6.54687 18.5898C6.62087 18.7588 6.65757 18.5404 6.64257 18.4824C6.99207 18.4289 7.01922 18.3215 6.93359 18.2949ZM4.91601 18.6543C4.63614 18.6414 4.17762 18.702 4.01562 18.8965C4.22162 18.9905 4.44814 18.6364 4.74414 18.8594C5.29664 18.7544 5.19589 18.6672 4.91601 18.6543ZM8.91211 18.7051C9.052 18.6822 9.48515 18.844 9.33203 19.1152C9.22703 19.1452 9.24496 18.9869 9.16796 18.9609C8.85071 18.7993 8.82817 18.7188 8.91211 18.7051ZM3.48632 19.0801C3.41318 19.08 3.35465 19.1131 3.34765 19.2031L3.48828 19.332C4.05003 19.3778 3.70575 19.0803 3.48632 19.0801ZM3.17187 19.3379C3.06759 19.3227 2.97097 19.3804 2.91797 19.5762C3.01597 19.5522 3.17162 19.6087 3.26562 19.6797C3.85812 20.0847 3.48472 19.3836 3.17187 19.3379ZM6.98242 19.4336C7.50244 19.3318 7.35072 20.6779 7.18359 21.0918C7.49859 20.8768 7.43793 22.091 7.33593 22.543C7.50793 22.312 7.57872 22.9168 7.38672 23.3438C7.40272 23.2738 7.80281 23.2128 7.50781 23.7188C7.28281 23.2228 7.18507 24.7277 7.33007 24.0527C7.72707 23.4147 7.62314 24.0188 7.74414 24.3008C7.82214 24.8858 8.08311 25.4254 8.16211 25.9434C8.52911 26.3134 8.00581 26.0625 8.00781 26.5625C8.12681 26.4175 8.61237 26.7662 8.60937 27.2852C8.64937 26.4622 8.69665 27.0926 9.09765 27.3066C9.43265 27.8466 9.68359 28.3519 10.1836 28.7969C10.5736 29.2479 10.1591 28.931 10.3281 29.207C10.7421 29.941 11.7012 30.3666 12.5312 30.5586C12.8952 31.0326 13.4416 31.5041 14.1816 31.2891C13.5556 31.6751 15.9447 31.78 15.1367 31.998C14.7167 32.226 14.3182 31.8511 13.9082 31.8711C13.3382 31.6751 12.4372 31.0744 11.8262 31.4824C10.9812 32.0114 12.2592 30.8926 11.5742 31.3926C10.8802 32.2256 11.1028 30.8743 10.4258 31.2793C10.3868 31.1503 9.824 31.1147 10.25 30.8867C9.868 30.8627 10.1061 30.8382 10.2441 30.5332C10.0801 30.4992 9.16854 30.5314 8.81054 30.2324C8.38854 29.6834 8.88421 29.9063 9.32421 29.9863C8.61821 30.1103 9.56706 30.516 10.0391 30.291C9.82706 30.201 9.58443 29.7428 9.02343 29.3418C8.23943 28.8698 7.59425 28.6446 6.78125 28.2676C5.90125 27.7456 6.9782 28.0824 7.2832 28.3574C8.1612 28.7444 7.81564 27.8143 7.30664 27.5723C6.74864 27.5953 6.6052 26.9542 6.1582 26.9902C6.8642 27.1032 7.35436 26.8077 6.56836 26.0977C5.82136 25.2257 6.88031 26.7556 6.44531 26.5586C6.24731 26.2976 6.39567 25.9221 5.76367 25.7871C5.75667 26.0281 5.67706 26.4015 5.53906 25.8945C5.36306 25.9245 5.16157 26.1177 5.01757 25.5957C5.15357 25.0027 4.43036 24.8673 4.31836 24.4883C4.94336 24.8873 5.2262 24.5727 4.7832 24.1367C4.4782 23.6037 4.43562 24.0217 4.26562 24.0957C3.65262 24.7217 4.2095 23.0158 3.9375 23.5078C3.6635 23.4998 3.82117 23.8094 3.82617 24.1934C2.93017 23.9714 4.04373 24.6649 4.30273 25.0469C3.89373 24.6189 3.96309 25.3677 3.62109 25.0117C3.50509 24.6967 3.48892 24.1993 2.91992 24.1113C3.56692 23.8873 2.53509 23.4322 2.62109 23.4082C2.99109 23.0712 3.03837 22.608 3.48437 23.332C2.91937 23.286 3.46842 24.2647 3.60742 23.9727C3.58542 23.4717 3.83837 22.9458 2.98437 22.7148C2.73337 23.0528 2.30073 22.0527 2.80273 22.2637C2.73673 21.5997 3.58134 21.9911 3.52734 21.7031C3.96334 21.5121 2.99953 20.8954 3.51953 20.6484C3.91753 20.8904 4.94986 20.2676 4.25586 20.1816C4.68986 20.1776 5.03798 20.3677 5.08398 19.9277C5.43498 20.0037 6.38448 20.3061 5.52148 19.8301C5.79748 19.6931 6.38079 19.5773 6.71679 19.5723C6.82042 19.4916 6.90813 19.4481 6.98242 19.4336ZM36.6211 19.9922C35.9571 19.9922 35.4263 20.1405 35.0293 20.4395C34.6013 20.7495 34.3887 21.1813 34.3887 21.7383C34.3887 22.1913 34.5258 22.5523 34.7988 22.8203C35.0508 23.0723 35.5527 23.3662 36.3047 23.7012C36.8247 23.9282 37.1755 24.1269 37.3555 24.2969C37.5205 24.4469 37.6035 24.6315 37.6035 24.8535C37.6035 25.3585 37.2407 25.6113 36.5137 25.6113C35.6527 25.6113 35.0286 25.2746 34.6426 24.5996C34.5546 24.4506 34.4482 24.3834 34.3242 24.3984C34.2002 24.4084 34.1387 24.5493 34.1387 24.8223C34.1387 25.4563 34.1602 25.8108 34.2012 25.8828C34.2682 25.9598 34.5107 26.0437 34.9277 26.1367C35.4117 26.2397 35.8969 26.293 36.3809 26.293C37.1079 26.293 37.6816 26.1306 38.1016 25.8086C38.5216 25.4866 38.7305 25.0538 38.7305 24.5078C38.7305 24.0138 38.5765 23.6193 38.2695 23.3223C38.0325 23.0963 37.5838 22.8396 36.9238 22.5566C36.2948 22.2836 35.8966 22.0821 35.7266 21.9531C35.5356 21.8031 35.4394 21.6046 35.4394 21.3516C35.4394 20.8986 35.792 20.6719 36.498 20.6719C37.122 20.6719 37.6379 21.003 38.0449 21.668C38.1019 21.761 38.2148 21.7899 38.3848 21.7539C38.5438 21.7129 38.6166 21.6588 38.6016 21.5918C38.4726 21.0458 38.3867 20.6288 38.3457 20.3398C38.3297 20.2418 38.1366 20.1588 37.7656 20.0918C37.4206 20.0258 37.0381 19.9922 36.6211 19.9922ZM30.1875 20.0234C29.5795 20.0234 28.9471 20.198 28.2871 20.543C27.6581 20.873 27.3437 21.1612 27.3437 21.4082C27.3437 21.8042 27.5555 21.9824 27.9785 21.9414C28.3495 21.9104 28.634 21.6958 28.832 21.2988C29.03 20.9018 29.2409 20.7031 29.4629 20.7031C30.2409 20.7031 30.613 21.1277 30.582 21.9727L30.5684 22.4668C30.5634 22.6828 30.3852 22.8256 30.0352 22.8926C27.9942 23.2796 26.9746 23.9176 26.9746 24.8086C26.9746 25.2776 27.1285 25.6489 27.4375 25.9219C27.7205 26.1689 28.0731 26.293 28.4961 26.293C28.9441 26.293 29.391 26.1876 29.834 25.9766C30.277 25.7656 30.5224 25.6582 30.5684 25.6582C30.6304 25.6582 30.7376 25.7571 30.8926 25.9531C31.0466 26.1491 31.2248 26.2461 31.4258 26.2461C31.6628 26.2461 31.979 26.137 32.373 25.918C32.767 25.699 32.9648 25.5357 32.9648 25.4277C32.9648 25.2267 32.8893 25.126 32.7383 25.125C32.7123 25.125 32.6209 25.1381 32.4609 25.1641C32.3009 25.1901 32.1937 25.2031 32.1367 25.2031C31.8487 25.2031 31.7059 25.0362 31.7109 24.7012L31.7422 21.5156C31.7522 20.5206 31.2335 20.0234 30.1875 20.0234ZM6.92578 20.2598C6.79429 20.2975 6.58872 20.9963 6.73047 21.2461C7.04247 21.7431 7.35465 20.0246 7.09765 20.6016C6.95965 21.3366 6.81857 21.0294 7.01757 20.4824C7.00557 20.3067 6.96961 20.2472 6.92578 20.2598ZM2.53515 20.9102C2.58486 20.9079 2.67214 20.9119 2.80664 20.9258C3.50064 20.9018 3.27781 21.3109 2.88281 21.3379C2.87381 21.3639 2.52097 21.2533 2.66797 21.1563C3.61997 21.277 2.18723 20.9258 2.53515 20.9102ZM4.2832 21.1523C4.34107 21.2821 4.43923 21.5263 4.36523 21.6348C4.56023 21.8278 5.2264 22.1712 4.6914 21.6992C5.0324 21.6312 4.64636 21.5233 4.44336 21.3613C4.20786 21.0078 4.22532 21.0226 4.2832 21.1523ZM2.01953 21.1699C2.17703 21.1638 2.3387 21.2446 2.0332 21.4316C1.7087 21.2691 1.86203 21.176 2.01953 21.1699ZM6.45898 21.625C6.44887 21.6106 6.44357 21.6234 6.45507 21.6934C6.57282 21.9574 6.48931 21.6681 6.45898 21.625ZM4.09375 21.8887C4.18575 22.0217 4.43478 21.9628 4.55078 22.0918C5.59878 22.5258 4.45675 21.8107 4.09375 21.8887ZM3.92968 21.9707C3.87813 21.9824 3.88739 22.0509 4.00195 22.209C4.07395 22.372 4.24757 22.3858 4.39257 22.4238C5.51707 22.9422 4.1531 21.9199 3.92968 21.9707ZM1.99414 22.0586C2.16501 22.0865 2.37053 22.1786 2.14453 22.2676L2.05273 22.2324C1.68723 22.0659 1.82326 22.0307 1.99414 22.0586ZM3.58398 22.1953C3.53278 22.198 3.5767 22.2748 3.81445 22.4863L3.96875 22.6445C4.74875 22.8583 3.73759 22.1873 3.58398 22.1953ZM3.47851 22.4043C3.43825 22.403 3.80006 22.79 3.63281 22.7832C3.05381 22.3602 3.29018 22.6594 3.61718 22.9844C3.97218 23.5114 4.2655 22.6705 3.6875 22.5645C3.55 22.449 3.49193 22.4047 3.47851 22.4043ZM5.93554 22.9551C5.92818 22.9792 5.9269 23.0608 5.9414 23.2383C6.03815 23.326 5.95762 22.8827 5.93554 22.9551ZM6.44726 23C6.32253 23.0008 6.22886 23.8851 6.53711 24.0703C6.66411 24.4353 6.7997 24.2851 6.8457 23.8711C6.5477 23.8771 6.96836 23.2226 6.56836 23.3516C6.53336 23.0968 6.48884 22.9998 6.44726 23ZM7.30859 23.0195C7.28622 22.9699 7.23239 23.0784 7.21289 23.4414V23.5449C7.32089 23.2764 7.33097 23.0692 7.30859 23.0195ZM1.46875 23.0488C1.54778 23.0298 1.99825 23.9421 1.9375 24.1934C1.6615 24.0974 1.67487 23.6655 1.54687 23.4375C1.45812 23.1653 1.4424 23.0552 1.46875 23.0488ZM4.75976 23.0938C4.68676 23.2968 4.91473 23.9625 5.05273 24.1895C5.40473 24.7305 5.24681 23.8936 5.63281 24.4336C5.42081 23.9596 5.7325 24.2176 5.6875 24.0156C5.5895 23.8116 4.64026 22.7319 5.07226 23.5469C5.46326 24.5189 4.82676 23.4248 4.75976 23.0938ZM1.2832 23.252C1.38887 23.3201 1.67211 23.7809 1.72461 24.0371C2.16961 24.5731 1.99407 24.8684 2.45507 25.5254C1.86207 25.1514 1.75004 24.2586 1.37304 23.6816C1.21892 23.3115 1.2198 23.2111 1.2832 23.252ZM30.3711 23.373C30.422 23.3769 30.4621 23.3897 30.4941 23.4102C30.5591 23.4512 30.589 23.5351 30.584 23.6641L30.5684 24.9336C30.5684 25.0936 30.4088 25.2308 30.0898 25.3438C29.8168 25.4418 29.551 25.4902 29.293 25.4902C28.649 25.4902 28.3262 25.1946 28.3262 24.6016C28.3262 24.0136 28.9474 23.6087 30.1894 23.3867C30.2589 23.3737 30.3202 23.3692 30.3711 23.373ZM4.55664 24.9316C4.79518 25.0065 4.65101 25.7867 5.00976 25.8926C5.81076 26.9376 4.45495 25.9233 4.00195 25.8223C4.05995 25.8193 3.59982 25.6915 3.79882 25.6465C3.65382 25.4975 3.32931 24.9564 4.07031 25.3184C4.65931 25.6134 4.70873 25.4143 4.42773 24.9453C4.47998 24.9232 4.52256 24.9209 4.55664 24.9316ZM1.85351 25.084C1.87334 24.9842 2.28122 25.6403 2.35547 25.9141C2.57947 26.6271 3.28056 27.0378 3.35156 27.5098C4.12856 27.9578 3.72981 28.6885 4.38281 28.8945C4.67281 28.7475 4.70136 29.7745 5.31836 29.5605C4.97536 29.7215 5.46276 29.9119 5.63476 30.2109C6.02376 30.1579 6.87634 31.0679 6.02734 30.7539C5.66934 30.6779 5.42487 30.3055 5.17187 30.0625C4.42087 29.5855 3.93348 28.7874 3.52148 28.0234C2.99048 27.2204 2.35128 26.4175 1.98828 25.4785C1.88178 25.2348 1.8469 25.1172 1.85351 25.084ZM7.82031 25.6875C7.78072 25.7078 7.77865 25.8264 7.89453 26.0859L7.96289 26.1973C8.05726 25.8904 7.88629 25.6537 7.82031 25.6875ZM5.11914 26.6055C5.34014 26.6536 5.67264 26.7723 5.80664 26.7988C5.84364 26.9578 5.04914 26.9331 5.74414 27.2441C5.33914 27.2331 5.21692 27.2026 5.79492 27.5566C5.56792 27.7386 6.25257 27.8833 6.01757 28.1563C6.71457 28.7003 5.89175 28.2943 5.59375 28.0723C5.41775 27.9503 4.7005 27.7078 4.8125 27.5488C5.6585 27.9928 5.02729 27.5294 4.65429 27.2344C5.33629 27.4014 4.10781 26.7293 4.75781 26.9063C4.95081 26.9533 4.46556 26.508 5.10156 26.832C4.78856 26.579 4.89814 26.5573 5.11914 26.6055ZM9.36132 28.3105C9.27418 28.2798 9.36043 28.6171 9.55468 28.8203C9.96868 29.3133 9.65376 28.5404 9.50976 28.4824C9.43976 28.3722 9.39037 28.3208 9.36132 28.3105ZM5.70898 28.7949C5.93948 28.7974 6.31632 28.9014 6.54882 29.0254C7.56882 29.2524 6.33182 29.5259 5.92382 29.2129L5.75195 29.1758C5.39545 28.8928 5.47848 28.7924 5.70898 28.7949ZM6.92773 28.9023C7.01257 28.8842 7.39812 29.0428 7.5625 29.1953C8.0515 29.2613 8.05367 29.4847 7.51367 29.3457C7.41767 29.2867 7.26289 29.29 7.21289 29.166C6.93464 28.9883 6.87683 28.9132 6.92773 28.9023ZM7.57812 28.9102C7.73237 28.9075 7.98495 28.9514 8.06445 29.0684C9.13545 29.2404 7.99668 29.3152 7.67968 29.0332C7.36818 28.9617 7.42387 28.9128 7.57812 28.9102ZM7.57812 29.5137C7.6939 29.4881 8.45 29.8002 7.90625 29.7305L7.74804 29.6797C7.57229 29.5694 7.53953 29.5222 7.57812 29.5137ZM11.1816 29.6953C11.2154 29.7072 11.2497 29.7381 11.2734 29.7988C10.9922 29.7943 11.0804 29.6597 11.1816 29.6953ZM7.58203 29.9883C7.80173 30.0095 8.64693 30.4713 7.89843 30.2598L7.7832 30.2148L7.65234 30.1543C7.50409 30.0225 7.50879 29.9812 7.58203 29.9883ZM9.40039 31.2051C9.50192 31.1889 10.3357 31.2646 9.62695 31.2578C9.4137 31.2253 9.36654 31.2105 9.40039 31.2051ZM7.18359 31.3281C7.24362 31.3415 7.33876 31.3709 7.47851 31.4219C8.37351 31.9749 9.40532 32.2674 10.3613 32.6934C11.2013 32.8034 12.0871 33.0257 12.9141 32.8477C13.6041 33.1927 14.3197 32.7583 15.0117 33.0703C13.4827 33.3683 11.9097 33.0421 10.3867 32.8301C9.42671 32.7091 8.56936 32.3106 7.69336 31.9316C7.56636 31.8716 7.44622 31.7966 7.32422 31.7266C6.72222 31.3926 6.79681 31.3243 7.38281 31.6523C7.58981 31.8173 9.05837 32.4185 8.35937 32.0215C8.09512 31.9559 6.76337 31.2342 7.18359 31.3281ZM12.75 31.5938C12.8185 31.6378 12.8209 31.7814 12.8184 31.9629C12.3584 32.4709 12.6327 31.7553 12.3477 32.0313C12.0847 32.2413 12.1471 31.9062 12.2891 31.8262C12.5466 31.6057 12.6815 31.5498 12.75 31.5938ZM16.584 31.7559C16.9946 31.7912 17.4643 31.8861 17.7363 31.8926C17.5713 32.2396 16.5515 31.9207 16.1035 32.0117L15.9102 32L15.791 31.9805C15.8225 31.7445 16.1734 31.7205 16.584 31.7559ZM20.1152 31.8672C21.1772 31.8662 20.1853 32.0215 19.6973 32.0195C19.1433 31.8895 19.9482 31.8932 20.1152 31.8672ZM13.7187 32.0059C13.8037 31.9962 13.8328 32.0633 13.5918 32.2188L13.5039 32.2461C13.4919 32.1001 13.6337 32.0155 13.7187 32.0059ZM13.3144 32.0684C13.3301 32.0925 13.2952 32.1617 13.1602 32.3047C12.7672 32.3302 13.2676 31.9959 13.3144 32.0684ZM9.48242 32.1777C9.57832 32.1536 10.6114 32.4516 10.7441 32.4238C11.7971 32.8148 10.1156 32.551 9.76757 32.332C9.52332 32.2288 9.45045 32.1858 9.48242 32.1777ZM14.5703 32.2285C14.5726 32.2548 14.5178 32.3162 14.3633 32.4277L14.2344 32.5117C14.0514 32.385 14.5635 32.1498 14.5703 32.2285Z" fill="#FF6B6B"/>
</g>
<defs>
<clipPath id="clip0_6_51">
<rect width="50" height="50" fill="white"/>
</clipPath>
</defs>
</svg>
